<mxfile host="app.diagrams.net" modified="2023-06-15T13:05:56.180Z" agent="Mozilla/5.0 (Macintosh; Intel Mac OS X 10_15_7) AppleWebKit/605.1.15 (KHTML, like Gecko) Version/16.5 Safari/605.1.15" etag="Ixb35tvp7s7ZX98zDzqa" version="21.4.0" type="device">
  <diagram name="Page-1" id="QUvwUfsH_QBexRIajkRA">
    <mxGraphModel dx="819" dy="755" grid="1" gridSize="10" guides="1" tooltips="1" connect="1" arrows="1" fold="1" page="1" pageScale="1" pageWidth="850" pageHeight="1100" math="0" shadow="0">
      <root>
        <mxCell id="0" />
        <mxCell id="1" parent="0" />
        <mxCell id="a92ZxEg2uk7sp3GpPsdw-1" value="Yellow Light(00)" style="swimlane;rounded=1;startSize=40;" vertex="1" parent="1">
          <mxGeometry x="375" y="370" width="170" height="80" as="geometry" />
        </mxCell>
        <mxCell id="a92ZxEg2uk7sp3GpPsdw-8" value="entry /&amp;nbsp;y_en" style="text;html=1;align=center;verticalAlign=middle;resizable=0;points=[];autosize=1;strokeColor=none;fillColor=none;" vertex="1" parent="a92ZxEg2uk7sp3GpPsdw-1">
          <mxGeometry x="40" y="40" width="90" height="30" as="geometry" />
        </mxCell>
        <mxCell id="a92ZxEg2uk7sp3GpPsdw-3" value="Red Light(10)" style="swimlane;rounded=1;startSize=40;" vertex="1" parent="1">
          <mxGeometry x="515" y="490" width="170" height="80" as="geometry" />
        </mxCell>
        <mxCell id="a92ZxEg2uk7sp3GpPsdw-10" value="entry /&amp;nbsp;r_en" style="text;html=1;align=center;verticalAlign=middle;resizable=0;points=[];autosize=1;strokeColor=none;fillColor=none;" vertex="1" parent="a92ZxEg2uk7sp3GpPsdw-3">
          <mxGeometry x="45" y="40" width="80" height="30" as="geometry" />
        </mxCell>
        <mxCell id="a92ZxEg2uk7sp3GpPsdw-4" value="Green Light(01)" style="swimlane;rounded=1;startSize=40;" vertex="1" parent="1">
          <mxGeometry x="230" y="490" width="170" height="80" as="geometry" />
        </mxCell>
        <mxCell id="a92ZxEg2uk7sp3GpPsdw-9" value="entry /&amp;nbsp;g_en" style="text;html=1;align=center;verticalAlign=middle;resizable=0;points=[];autosize=1;strokeColor=none;fillColor=none;" vertex="1" parent="a92ZxEg2uk7sp3GpPsdw-4">
          <mxGeometry x="40" y="40" width="90" height="30" as="geometry" />
        </mxCell>
        <mxCell id="a92ZxEg2uk7sp3GpPsdw-46" value="" style="endArrow=classic;html=1;curved=1;" edge="1" parent="a92ZxEg2uk7sp3GpPsdw-4">
          <mxGeometry width="50" height="50" relative="1" as="geometry">
            <mxPoint y="60" as="sourcePoint" />
            <mxPoint y="50" as="targetPoint" />
            <Array as="points">
              <mxPoint x="-30" y="60" />
              <mxPoint x="-30" y="50" />
            </Array>
          </mxGeometry>
        </mxCell>
        <mxCell id="a92ZxEg2uk7sp3GpPsdw-5" value="" style="endArrow=classic;html=1;rounded=0;entryX=0.502;entryY=-0.049;entryDx=0;entryDy=0;entryPerimeter=0;" edge="1" parent="1" target="a92ZxEg2uk7sp3GpPsdw-1">
          <mxGeometry width="50" height="50" relative="1" as="geometry">
            <mxPoint x="460" y="320" as="sourcePoint" />
            <mxPoint x="560" y="470" as="targetPoint" />
          </mxGeometry>
        </mxCell>
        <mxCell id="a92ZxEg2uk7sp3GpPsdw-6" value="" style="strokeWidth=2;html=1;shape=mxgraph.flowchart.start_2;whiteSpace=wrap;fillColor=#FAFAFA;fillStyle=solid;strokeColor=default;" vertex="1" parent="1">
          <mxGeometry x="450" y="300" width="20" height="20" as="geometry" />
        </mxCell>
        <mxCell id="a92ZxEg2uk7sp3GpPsdw-7" value="resetn=0" style="text;strokeColor=none;align=center;fillColor=none;html=1;verticalAlign=middle;whiteSpace=wrap;rounded=0;" vertex="1" parent="1">
          <mxGeometry x="460" y="330" width="60" height="30" as="geometry" />
        </mxCell>
        <mxCell id="a92ZxEg2uk7sp3GpPsdw-11" value="" style="rounded=0;whiteSpace=wrap;html=1;" vertex="1" parent="1">
          <mxGeometry x="540" y="210" width="220" height="120" as="geometry" />
        </mxCell>
        <mxCell id="a92ZxEg2uk7sp3GpPsdw-12" value="&lt;p style=&quot;line-height: 120%; font-size: 11px;&quot;&gt;&lt;font style=&quot;font-size: 12px;&quot;&gt;Output signals not listed are inactive.&lt;br&gt;&lt;br&gt;Signals on transition arc are (stop, go)&lt;/font&gt;&lt;/p&gt;" style="text;strokeColor=none;align=center;fillColor=none;html=1;verticalAlign=middle;whiteSpace=wrap;rounded=0;" vertex="1" parent="1">
          <mxGeometry x="540" y="210" width="220" height="120" as="geometry" />
        </mxCell>
        <mxCell id="a92ZxEg2uk7sp3GpPsdw-13" value="" style="endArrow=classic;html=1;exitX=0;exitY=0.25;exitDx=0;exitDy=0;rounded=1;entryX=0;entryY=0.75;entryDx=0;entryDy=0;" edge="1" parent="1" source="a92ZxEg2uk7sp3GpPsdw-4" target="a92ZxEg2uk7sp3GpPsdw-1">
          <mxGeometry width="50" height="50" relative="1" as="geometry">
            <mxPoint x="510" y="520" as="sourcePoint" />
            <mxPoint x="370" y="440" as="targetPoint" />
            <Array as="points">
              <mxPoint x="220" y="510" />
              <mxPoint x="220" y="430" />
            </Array>
          </mxGeometry>
        </mxCell>
        <mxCell id="a92ZxEg2uk7sp3GpPsdw-14" value="(0,0)" style="text;strokeColor=none;align=center;fillColor=none;html=1;verticalAlign=middle;whiteSpace=wrap;rounded=0;" vertex="1" parent="1">
          <mxGeometry x="210" y="435" width="60" height="30" as="geometry" />
        </mxCell>
        <mxCell id="a92ZxEg2uk7sp3GpPsdw-16" value="(0,0)" style="text;strokeColor=none;align=center;fillColor=none;html=1;verticalAlign=middle;whiteSpace=wrap;rounded=0;" vertex="1" parent="1">
          <mxGeometry x="300" y="380" width="60" height="30" as="geometry" />
        </mxCell>
        <mxCell id="a92ZxEg2uk7sp3GpPsdw-18" value="(0,0)" style="text;strokeColor=none;align=center;fillColor=none;html=1;verticalAlign=middle;whiteSpace=wrap;rounded=0;direction=west;flipH=1;" vertex="1" parent="1">
          <mxGeometry x="705" y="500" width="60" height="30" as="geometry" />
        </mxCell>
        <mxCell id="a92ZxEg2uk7sp3GpPsdw-20" value="" style="endArrow=classic;html=1;curved=1;" edge="1" parent="1">
          <mxGeometry width="50" height="50" relative="1" as="geometry">
            <mxPoint x="685" y="510" as="sourcePoint" />
            <mxPoint x="685" y="520" as="targetPoint" />
            <Array as="points">
              <mxPoint x="715" y="510" />
              <mxPoint x="715" y="520" />
            </Array>
          </mxGeometry>
        </mxCell>
        <mxCell id="a92ZxEg2uk7sp3GpPsdw-21" value="" style="endArrow=classic;html=1;curved=1;" edge="1" parent="1">
          <mxGeometry width="50" height="50" relative="1" as="geometry">
            <mxPoint x="685" y="550" as="sourcePoint" />
            <mxPoint x="685" y="540" as="targetPoint" />
            <Array as="points">
              <mxPoint x="715" y="550" />
              <mxPoint x="715" y="540" />
            </Array>
          </mxGeometry>
        </mxCell>
        <mxCell id="a92ZxEg2uk7sp3GpPsdw-22" value="(1,1)" style="text;strokeColor=none;align=center;fillColor=none;html=1;verticalAlign=middle;whiteSpace=wrap;rounded=0;direction=west;flipH=1;" vertex="1" parent="1">
          <mxGeometry x="705" y="530" width="60" height="30" as="geometry" />
        </mxCell>
        <mxCell id="a92ZxEg2uk7sp3GpPsdw-32" value="" style="endArrow=classic;html=1;curved=1;" edge="1" parent="1">
          <mxGeometry width="50" height="50" relative="1" as="geometry">
            <mxPoint x="375" y="390" as="sourcePoint" />
            <mxPoint x="375" y="400" as="targetPoint" />
            <Array as="points">
              <mxPoint x="345" y="390" />
              <mxPoint x="345" y="400" />
            </Array>
          </mxGeometry>
        </mxCell>
        <mxCell id="a92ZxEg2uk7sp3GpPsdw-33" value="" style="endArrow=classic;html=1;rounded=1;entryX=0.999;entryY=0.134;entryDx=0;entryDy=0;exitX=1;exitY=0.75;exitDx=0;exitDy=0;entryPerimeter=0;" edge="1" parent="1" source="a92ZxEg2uk7sp3GpPsdw-1" target="a92ZxEg2uk7sp3GpPsdw-3">
          <mxGeometry width="50" height="50" relative="1" as="geometry">
            <mxPoint x="540" y="420" as="sourcePoint" />
            <mxPoint x="690" y="475.00000000000045" as="targetPoint" />
            <Array as="points">
              <mxPoint x="720" y="430" />
              <mxPoint x="720" y="500" />
            </Array>
          </mxGeometry>
        </mxCell>
        <mxCell id="a92ZxEg2uk7sp3GpPsdw-36" value="(1,1)" style="text;strokeColor=none;align=center;fillColor=none;html=1;verticalAlign=middle;whiteSpace=wrap;rounded=0;direction=west;flipH=1;" vertex="1" parent="1">
          <mxGeometry x="710" y="435" width="60" height="30" as="geometry" />
        </mxCell>
        <mxCell id="a92ZxEg2uk7sp3GpPsdw-38" value="(1,1)" style="text;strokeColor=none;align=center;fillColor=none;html=1;verticalAlign=middle;whiteSpace=wrap;rounded=0;direction=west;flipH=1;" vertex="1" parent="1">
          <mxGeometry x="425" y="470" width="60" height="30" as="geometry" />
        </mxCell>
        <mxCell id="a92ZxEg2uk7sp3GpPsdw-39" value="" style="endArrow=classic;html=1;rounded=1;entryX=-0.017;entryY=0.38;entryDx=0;entryDy=0;exitX=1;exitY=0.75;exitDx=0;exitDy=0;entryPerimeter=0;" edge="1" parent="1" target="a92ZxEg2uk7sp3GpPsdw-4">
          <mxGeometry width="50" height="50" relative="1" as="geometry">
            <mxPoint x="375" y="420" as="sourcePoint" />
            <mxPoint x="230" y="465.00000000000045" as="targetPoint" />
            <Array as="points">
              <mxPoint x="200" y="420" />
              <mxPoint x="200" y="520" />
            </Array>
          </mxGeometry>
        </mxCell>
        <mxCell id="a92ZxEg2uk7sp3GpPsdw-40" value="(0,1)" style="text;strokeColor=none;align=center;fillColor=none;html=1;verticalAlign=middle;whiteSpace=wrap;rounded=0;" vertex="1" parent="1">
          <mxGeometry x="150" y="435" width="60" height="30" as="geometry" />
        </mxCell>
        <mxCell id="a92ZxEg2uk7sp3GpPsdw-43" value="" style="endArrow=classic;html=1;rounded=0;exitX=0.998;exitY=0.182;exitDx=0;exitDy=0;entryX=0;entryY=0.25;entryDx=0;entryDy=0;exitPerimeter=0;" edge="1" parent="1" source="a92ZxEg2uk7sp3GpPsdw-4">
          <mxGeometry width="50" height="50" relative="1" as="geometry">
            <mxPoint x="405" y="505" as="sourcePoint" />
            <mxPoint x="515" y="505" as="targetPoint" />
          </mxGeometry>
        </mxCell>
        <mxCell id="a92ZxEg2uk7sp3GpPsdw-45" value="(0,1)" style="text;strokeColor=none;align=center;fillColor=none;html=1;verticalAlign=middle;whiteSpace=wrap;rounded=0;" vertex="1" parent="1">
          <mxGeometry x="425" y="515" width="60" height="30" as="geometry" />
        </mxCell>
        <mxCell id="a92ZxEg2uk7sp3GpPsdw-47" value="(0,1)" style="text;strokeColor=none;align=center;fillColor=none;html=1;verticalAlign=middle;whiteSpace=wrap;rounded=0;direction=west;flipH=0;" vertex="1" parent="1">
          <mxGeometry x="150" y="530" width="60" height="30" as="geometry" />
        </mxCell>
        <mxCell id="a92ZxEg2uk7sp3GpPsdw-48" value="" style="endArrow=classic;html=1;rounded=0;exitX=0.998;exitY=0.182;exitDx=0;exitDy=0;entryX=0;entryY=0.25;entryDx=0;entryDy=0;exitPerimeter=0;" edge="1" parent="1">
          <mxGeometry width="50" height="50" relative="1" as="geometry">
            <mxPoint x="515" y="515" as="sourcePoint" />
            <mxPoint x="400" y="515" as="targetPoint" />
          </mxGeometry>
        </mxCell>
        <mxCell id="a92ZxEg2uk7sp3GpPsdw-49" value="" style="endArrow=classic;html=1;rounded=0;exitX=0.938;exitY=0.008;exitDx=0;exitDy=0;exitPerimeter=0;" edge="1" parent="1" source="a92ZxEg2uk7sp3GpPsdw-4">
          <mxGeometry width="50" height="50" relative="1" as="geometry">
            <mxPoint x="380" y="490" as="sourcePoint" />
            <mxPoint x="390" y="450" as="targetPoint" />
          </mxGeometry>
        </mxCell>
        <mxCell id="a92ZxEg2uk7sp3GpPsdw-50" value="(1,0)" style="text;strokeColor=none;align=center;fillColor=none;html=1;verticalAlign=middle;whiteSpace=wrap;rounded=0;direction=west;flipH=1;" vertex="1" parent="1">
          <mxGeometry x="340" y="460" width="60" height="30" as="geometry" />
        </mxCell>
        <mxCell id="a92ZxEg2uk7sp3GpPsdw-51" value="" style="endArrow=classic;html=1;curved=1;" edge="1" parent="1">
          <mxGeometry width="50" height="50" relative="1" as="geometry">
            <mxPoint x="515" y="555" as="sourcePoint" />
            <mxPoint x="515" y="545" as="targetPoint" />
            <Array as="points">
              <mxPoint x="485" y="555" />
              <mxPoint x="485" y="545" />
            </Array>
          </mxGeometry>
        </mxCell>
        <mxCell id="a92ZxEg2uk7sp3GpPsdw-52" value="(1,0)" style="text;strokeColor=none;align=center;fillColor=none;html=1;verticalAlign=middle;whiteSpace=wrap;rounded=0;direction=west;flipH=0;" vertex="1" parent="1">
          <mxGeometry x="435" y="535" width="60" height="30" as="geometry" />
        </mxCell>
        <mxCell id="a92ZxEg2uk7sp3GpPsdw-53" value="" style="endArrow=classic;html=1;rounded=0;exitX=0.938;exitY=0.008;exitDx=0;exitDy=0;exitPerimeter=0;" edge="1" parent="1">
          <mxGeometry width="50" height="50" relative="1" as="geometry">
            <mxPoint x="529" y="449" as="sourcePoint" />
            <mxPoint x="530" y="490" as="targetPoint" />
          </mxGeometry>
        </mxCell>
        <mxCell id="a92ZxEg2uk7sp3GpPsdw-54" value="(1,0)" style="text;strokeColor=none;align=center;fillColor=none;html=1;verticalAlign=middle;whiteSpace=wrap;rounded=0;direction=west;flipH=1;flipV=1;" vertex="1" parent="1">
          <mxGeometry x="520" y="459" width="60" height="30" as="geometry" />
        </mxCell>
      </root>
    </mxGraphModel>
  </diagram>
</mxfile>
